POSTER: 
http://imgh.us/madagascar32Bpos.jpg


Plot:
Alex, Marty, Gloria and Melman are still fighting to get home to their beloved Big Apple. Their journey takes them through Europe where they find the perfect cover: a traveling circus, which they reinvent - Madagascar style. 
____________________________________________________________________________

SOURCES:

VIDEO:Spanish Thanks Bro 
AUDIO:26K/Friend Thanks Bro 
_________________________________________________________________________________

General
Complete name : /mnt/sdc1/rahulraj/files/Madagascar.3.Europes.Most.Wanted.2012.CAM.READNFO.V2.XviD-XTREME/Madagascar.3.Europes.Most.Wanted.2012.CAM.READNFO.V2.XviD-XTREME.avi
Format : AVI
Format/Info : Audio Video Interleave
File size : 1.55 GiB
Duration : 1h 23mn
Overall bit rate mode : Variable
Overall bit rate : 2 665 Kbps
Writing library : VirtualDub build 32842/release

Video
ID : 0
Format : AVC
Format/Info : Advanced Video Codec
Format profile : High@L3.0
Format settings, CABAC : Yes
Format settings, ReFrames : 4 frames
Codec ID : H264
Duration : 1h 23mn
Bit rate : 2 500 Kbps
Width : 700 pixels
Height : 374 pixels
Display aspect ratio : 1.872
Frame rate : 29.970 fps
Color space : YUV
Chroma subsampling : 4:2:0
Bit depth : 8 bits
Scan type : Progressive
Bits/(Pixel*Frame) : 0.319
Stream size : 1.45 GiB (94%)
Writing library : x264 core 120 r2120bm 0c7dab9
Encoding settings : cabac=1 / ref=3 / deblock=1:0:0 / analyse=0x3:0x113 / me=hex / subme=7 / psy=1 / psy_rd=1.00:0.00 / mixed_ref=1 / me_range=16 / chroma_me=1 / trellis=1 / 8x8dct=1 / cqm=0 / deadzone=21,11 / fast_pskip=1 / chroma_qp_offset=-2 / threads=9 / sliced_threads=0 / nr=0 / decimate=1 / interlaced=0 / bluray_compat=0 / constrained_intra=0 / bframes=3 / b_pyramid=2 / b_adapt=1 / b_bias=0 / direct=1 / weightb=1 / open_gop=0 / weightp=2 / keyint=250 / keyint_min=25 / scenecut=40 / intra_refresh=0 / rc_lookahead=40 / rc=abr / mbtree=1 / bitrate=2500 / ratetol=1.0 / qcomp=0.60 / qpmin=0 / qpmax=69 / qpstep=4 / ip_ratio=1.40 / aq=1:1.00

Audio
ID : 1
Format : MPEG Audio
Format version : Version 1
Format profile : Layer 3
Codec ID : 55
Codec ID/Hint : MP3
Duration : 1h 23mn
Bit rate mode : Variable
Bit rate : 146 Kbps
Channel(s) : 2 channels
Sampling rate : 48.0 KHz
Compression mode : Lossy
Stream size : 87.1 MiB (5%)
Alignment : Aligned on interleaves
Interleave, duration : 24 ms (0.72 video frame)
Interleave, preload duration : 671 ms


Notes:
Cleaned the video up,Added some brightness,Crop, Resize,Sync Audio,Put a few curveball to make it look nice.


SCREENS: 
http://imgh.us/9878060_madagascar.3.europe__1.jpg
